HIERARCHY
ROOT Hips
{
  OFFSET -187.679 86.5976 -156.378
  CHANNELS 6 Xposition Yposition Zposition Zrotation Xrotation Yrotation
  JOINT LeftUpLeg
  {
    OFFSET 8.64259 1.95398 -2.38835
    CHANNELS 3 Zrotation Xrotation Yrotation
    JOINT LeftLeg
    {
      OFFSET 43.7702 0 0
      CHANNELS 3 Zrotation Xrotation Yrotation
      JOINT LeftFoot
      {
        OFFSET 40.6238 0 0
        CHANNELS 3 Zrotation Xrotation Yrotation
        JOINT LeftToeBase
        {
          OFFSET 12.7242 0 0
          CHANNELS 3 Zrotation Xrotation Yrotation
          End Site
          {
            OFFSET 0 0 0
          }
        }
      }
    }
  }
  JOINT RightUpLeg
  {
    OFFSET -8.2249 1.95398 -2.59336
    CHANNELS 3 Zrotation Xrotation Yrotation
    JOINT RightLeg
    {
      OFFSET 43.5653 0 0
      CHANNELS 3 Zrotation Xrotation Yrotation
      JOINT RightFoot
      {
        OFFSET 40.6238 0 0
        CHANNELS 3 Zrotation Xrotation Yrotation
        JOINT RightToeBase
        {
          OFFSET 12.7242 0 0
          CHANNELS 3 Zrotation Xrotation Yrotation
          End Site
          {
            OFFSET 0 0 0
          }
        }
      }
    }
  }
  JOINT Spine
  {
    OFFSET 0.165834 0.87714 6.61349
    CHANNELS 3 Zrotation Xrotation Yrotation
    JOINT Spine1
    {
      OFFSET 7.38963 1.71661e-005 0
      CHANNELS 3 Zrotation Xrotation Yrotation
      JOINT Spine2
      {
        OFFSET 11.9445 1.14441e-005 0
        CHANNELS 3 Zrotation Xrotation Yrotation
        JOINT Spine3
        {
          OFFSET 14.7254 4.19617e-005 0
          CHANNELS 3 Zrotation Xrotation Yrotation
          JOINT Spine4
          {
            OFFSET 10.9679 0 0
            CHANNELS 3 Zrotation Xrotation Yrotation
            JOINT RightShoulder
            {
              OFFSET 2.46616 -1.6653 3.69651
              CHANNELS 3 Zrotation Xrotation Yrotation
              JOINT RightArm
              {
                OFFSET 13.0012 0 0
                CHANNELS 3 Zrotation Xrotation Yrotation
                JOINT RightForeArm
                {
                  OFFSET 28.7848 1.52588e-005 0
                  CHANNELS 3 Zrotation Xrotation Yrotation
                  JOINT RightHand
                  {
                    OFFSET 26.5688 1.52588e-005 0
                    CHANNELS 3 Zrotation Xrotation Yrotation
                    End Site
                    {
                      OFFSET 0 0 0
                    }
                  }
                }
              }
            }
            JOINT LeftShoulder
            {
              OFFSET 2.38034 -1.29275 -3.7523
              CHANNELS 3 Zrotation Xrotation Yrotation
              JOINT LeftArm
              {
                OFFSET 16.3182 6.10352e-005 0
                CHANNELS 3 Zrotation Xrotation Yrotation
                JOINT LeftForeArm
                {
                  OFFSET 27.0901 0 0
                  CHANNELS 3 Zrotation Xrotation Yrotation
                  JOINT LeftHand
                  {
                    OFFSET 24.5451 1.52588e-005 0
                    CHANNELS 3 Zrotation Xrotation Yrotation
                    End Site
                    {
                      OFFSET 0 0 0
                    }
                  }
                }
              }
            }
            JOINT Neck
            {
              OFFSET 5.0226 -0.0266342 0
              CHANNELS 3 Zrotation Xrotation Yrotation
              JOINT Head
              {
                OFFSET 6.69363 2.86102e-005 0
                CHANNELS 3 Zrotation Xrotation Yrotation
                End Site
                {
                  OFFSET 0 0 0
                }
              }
            }
          }
        }
      }
    }
  }
}
MOTION
Frames:	12
Frame Time:	0.0416667
35.7518 7.12179 40.4408 4.80686 -12.2748 0.496186 -171.8 -4.12623 97.4057 -34.2672 26.5257 10.3545 84.2732 12.27 0.359171 11.672 -3.37789 -7.04218 167.766 -13.5042 84.323 -20.5306 10.4396 3.79127 79.1039 -7.16021 2.20331 40.6615 1.31291 2.63392 0.0695047 6.01102 -90.0186 14.8519 0.128348 -0.056254 3.18096 0.12576 -0.0618545 -19.3543 0.139315 -0.0150764 0.658399 0.139321 -0.0150759 94.7766 -30.7963 -96.8509 2.66742 4.64025 17.7412 -51.889 56.548 -132.905 -26.3131 -9.99152 36.9361 -85.854 -23.673 79.7946 1.98042 -2.70299 12.0605 42.6968 -43.7589 -128.511 23.2704 8.8646 33.7676 57.5916 -5.76525 -5.83533 -3.00484 -1.52787 2.71702 
35.7276 7.08786 40.4572 4.88616 -12.3505 0.419949 -171.496 -3.9547 97.6275 -34.6016 26.9139 10.0544 83.7692 12.0156 0.40765 11.0623 -3.06577 -8.09113 167.746 -13.5873 84.2134 -20.6157 11.1317 3.79669 79.2344 -7.07417 3.32895 40.5707 1.38083 2.15907 0.0622674 6.02229 -90.0204 14.8294 0.113182 -0.0574695 3.15845 0.110546 -0.0623881 -19.3767 0.125223 -0.0207977 0.635936 0.125218 -0.0207927 94.8568 -30.5855 -96.7402 2.70149 4.60885 17.6589 -53.6709 57.4158 -131.44 -24.4176 -9.16099 36.6499 -85.9104 -23.9051 79.742 2.30547 -2.71278 11.9745 42.0649 -43.4072 -128.815 22.7132 8.64872 33.7031 55.3118 -5.71817 -6.6309 0.211293 -1.03292 4.32413 
35.708 7.08355 40.4258 4.79649 -12.3596 0.337264 -171.372 -4.08703 97.7347 -34.2193 27.135 9.80915 84.5229 12.3575 0.182668 10.2516 -3.86948 -7.05079 167.723 -13.3883 84.1051 -20.9826 10.891 3.83036 79.3001 -7.05373 3.01509 40.6509 1.36781 2.31004 0.083134 6.04033 -90.0059 14.7932 0.161664 -0.035372 3.12226 0.159954 -0.0424449 -19.413 0.164819 0.0148616 0.599666 0.164818 0.0148566 94.9868 -30.6343 -96.4695 2.5071 4.92139 17.4557 -55.299 58.1324 -130.041 -22.3498 -8.38108 36.7516 -85.9534 -23.4965 79.5323 2.51175 -3.11637 12.1118 41.8127 -43.1797 -129.104 23.0652 8.80956 33.8423 54.5566 -5.89727 -7.37195 1.5139 -0.709939 5.50821 
35.7309 7.11234 40.4299 4.93179 -12.3438 0.314619 -171.497 -4.01444 97.6204 -34.2854 27.0502 9.89851 84.3978 12.2823 0.145681 10.2736 -3.88263 -7.01067 167.666 -13.343 84.0342 -21.0549 11.1569 3.88591 79.3378 -7.01924 3.376 40.6442 1.3357 2.48724 0.0537164 6.03163 -90.0231 14.8106 0.0949127 -0.060363 3.13971 0.0921658 -0.0644983 -19.3955 0.10866 -0.0290426 0.617154 0.108671 -0.0290475 94.9336 -30.4196 -96.6272 3.0504 3.94564 17.3133 -57.6022 59.1517 -127.87 -21.0548 -7.79926 36.4171 -85.9583 -24.1181 79.7012 2.88805 -2.89444 12.1509 41.7043 -43.1735 -129.151 23.0507 8.84602 34.0107 54.5191 -5.72144 -7.1883 1.37329 -0.672347 5.3965 
35.7131 7.09055 40.4438 4.94996 -12.3484 0.303215 -171.404 -4.00539 97.6931 -34.3362 27.2666 9.85535 84.4035 12.2781 0.161028 10.442 -3.91815 -6.82508 167.705 -13.3878 84.0717 -20.9811 11.2673 3.82961 79.2906 -7.02296 3.47274 40.8583 1.45054 2.03177 0.0425065 6.02593 -90.0269 14.822 0.0708542 -0.064357 3.15112 0.0679497 -0.0674202 -19.3841 0.0869153 -0.0401025 0.628595 0.0869179 -0.0401051 94.9072 -30.433 -96.6759 3.00155 3.64836 17.3182 -57.6412 58.9857 -127.702 -20.0191 -7.26877 35.7265 -85.8164 -24.249 80.0382 2.49287 -2.28421 12.0301 41.8115 -43.1437 -128.765 22.435 8.41138 33.1401 54.6782 -5.61773 -6.927 1.06021 -0.750553 5.03691 
35.704 7.083 40.4386 4.99468 -12.2927 0.329152 -171.471 -3.91109 97.6799 -34.3902 27.2882 9.93045 84.3203 12.2235 0.118665 10.4833 -3.69833 -7.22832 167.734 -13.3703 84.1385 -20.9647 11.1612 3.84403 79.2729 -7.04217 3.14203 40.6538 1.33838 2.48137 0.0211956 6.00782 -90.0646 14.8582 0.0099559 -0.131305 3.18726 0.00416412 -0.131619 -19.3479 0.0489547 -0.122245 0.664801 0.0489493 -0.122234 94.8908 -30.0274 -96.8049 3.22905 3.40373 17.3055 -55.6595 58.3 -129.508 -23.0633 -8.46802 35.8646 -86.0098 -24.6529 79.7481 3.20233 -2.66433 12.4754 41.283 -42.9972 -129.34 22.8557 8.72461 33.8035 54.7825 -5.25674 -6.45609 0.861946 -0.716915 4.77122 
35.6835 7.08841 40.4212 4.93655 -12.3454 0.274413 -171.43 -4.03919 97.6642 -34.2693 27.3523 9.85957 84.2855 12.3348 0.401229 10.5276 -3.56148 -7.46692 167.727 -13.3341 84.0876 -21.0956 11.2243 3.82857 79.3418 -7.04552 3.22763 40.8059 1.36668 2.46569 0.0196557 5.99303 -90.0917 14.8878 -0.00654187 -0.183237 3.21686 -0.0146015 -0.182776 -19.3182 0.0488245 -0.176734 0.694474 0.0488293 -0.176727 94.8547 -29.6842 -96.9623 2.57919 4.09409 17.5032 -57.411 59.09 -128.242 -20.9907 -7.92549 36.8982 -86.1019 -25.5665 79.8118 4.05061 -2.62943 12.5199 40.9066 -42.6691 -129.456 22.4851 8.5112 33.4775 54.7332 -4.83474 -5.82135 0.794868 -0.739565 4.20324 
35.7006 7.07979 40.4204 5.12296 -12.3448 0.245371 -171.474 -4.00829 97.6301 -34.2991 27.425 9.88707 84.3107 12.3287 0.342996 10.4131 -3.62635 -7.41739 167.627 -13.3938 83.9894 -21.0488 11.3952 3.91059 79.3735 -7.01729 3.52154 40.6752 1.3892 2.21024 -0.00958078 6.00801 -90.0969 14.8578 -0.0669552 -0.184879 3.18682 -0.0750201 -0.18176 -19.3482 -0.00829294 -0.196454 0.664397 -0.00829633 -0.196456 94.994 -29.3687 -96.7545 3.26926 3.55768 17.1951 -58.5052 59.49 -127.198 -20.4717 -7.59137 36.3769 -85.7405 -25.4975 80.5415 3.55755 -2.46298 11.9589 41.3952 -43.0119 -129.146 22.7171 8.61971 33.5819 55.167 -4.78981 -5.79347 0.530186 -0.702801 4.09194 
35.6846 7.06574 40.4147 5.18649 -12.3267 0.238891 -171.419 -3.97293 97.6978 -34.3246 27.6613 9.83237 84.3969 12.2769 0.114808 10.4394 -4.24174 -6.19429 167.641 -13.3804 84.0132 -21.0935 11.4206 3.93125 79.3386 -7.02021 3.27941 40.9289 1.35227 2.66933 -0.021023 5.97661 -90.1488 14.9204 -0.115456 -0.282237 3.24942 -0.127766 -0.276894 -19.2855 -0.0252936 -0.303887 0.727183 -0.0252986 -0.303899 94.9894 -28.6916 -96.9296 3.83023 2.92237 17.4053 -57.0377 58.8004 -128.233 -21.2733 -7.75544 35.7746 -85.8944 -26.6833 80.541 4.28687 -2.22967 11.7459 41.3101 -42.8283 -128.942 22.1964 8.40055 33.4429 55.251 -4.26629 -4.50233 0.0152093 -1.05683 3.08465 
35.6846 7.07368 40.3984 5.03522 -12.3747 0.146812 -171.519 -4.18606 97.5309 -34.1062 27.3392 9.85323 84.4243 12.3995 0.312956 10.4928 -3.78912 -7.04297 167.579 -13.3014 83.8953 -21.2466 11.0548 3.90033 79.4823 -7.06446 3.01027 40.7413 1.36313 2.42398 0.000983098 5.95967 -90.1584 14.9544 -0.0767196 -0.307205 3.28345 -0.0901573 -0.303548 -19.2514 0.019156 -0.316058 0.761221 0.0191613 -0.316081 94.9622 -28.5748 -97.015 3.92608 2.59296 17.7577 -52.9121 56.6708 -131.582 -24.9328 -9.04247 35.1643 -86.0432 -27.4451 80.4415 4.79607 -1.92391 12.1716 41.4174 -42.9069 -128.882 22.3812 8.42028 33.2551 55.4652 -4.05231 -4.05348 -0.291574 -1.14261 2.84008 
35.6936 7.07971 40.3826 5.04501 -12.3826 0.147033 -171.503 -4.21393 97.5814 -34.0282 27.1811 9.78172 84.7724 12.3232 -0.293202 10.1445 -4.20098 -6.48321 167.566 -13.2476 83.8655 -21.4055 11.154 3.94189 79.5481 -7.03192 3.2771 40.7278 1.39035 2.25348 -0.0469486 5.91392 -90.1833 15.0461 -0.184019 -0.340767 3.3751 -0.198835 -0.332345 -19.1598 -0.0731011 -0.380324 0.852933 -0.0730966 -0.380323 94.2045 -28.9334 -98.4797 2.36867 2.67426 19.3747 -55.3024 57.2013 -129.325 -19.3633 -6.67829 34.026 -86.072 -27.505 80.3999 5.00984 -1.6286 13.5118 40.4807 -42.2025 -129.294 23.1361 8.64482 33.1114 55.2205 -3.63476 -3.44982 -0.504736 -1.15007 2.44961 
35.6769 7.07217 40.4207 5.08087 -12.3041 0.191653 -171.387 -4.1077 97.6719 -34.1364 27.851 9.72677 84.3489 12.4597 0.524758 10.7939 -4.05261 -6.31808 167.656 -13.2163 84.0203 -21.4324 11.4119 3.97819 79.4862 -7.02279 3.1773 40.3992 1.43224 1.71162 -0.0529645 5.93906 -90.1754 14.9954 -0.191923 -0.324034 3.32448 -0.205993 -0.315277 -19.2104 -0.0856703 -0.366729 0.802246 -0.085668 -0.366742 94.3705 -28.859 -98.1601 0.67899 5.25168 20.2623 -52.684 56.4458 -132.408 -22.6096 -8.6776 37.608 -85.7533 -26.6613 80.8215 4.14375 -1.75579 14.4095 40.2213 -41.9232 -129.285 20.8361 7.38189 30.9998 56.1656 -3.87319 -3.64564 -1.73115 -1.23848 3.02878 
